# xmcd CD database file generated by Grip 3.2.0
# 
# Track frame offsets:
#       150
#       10880
#       22420
#       34280
#       46520
#       55712
#       66577
#       77975
#       89627
#       102415
#       113720
#       126562
#       136480
#       147402
#       162210
#       175175
#       185007
#       197307
#       212160
#       222502
#       234852
#       246265
#       256420
#       268807
# 
# Disc length: 3729 seconds
# 
# Revision: 7
# Processed by: cddbd v1.5.2PL0 Copyright (c) Steve Scherf et al.
# Submitted via: Grip 3.2.0
# 
DISCID=6f0e8f18
DTITLE=Various Artist - He'll Have to Go - 24 Golden Country Hits
DYEAR=1987
DGENRE=Country
TTITLE0=Jim Reeves - He'll Have to Go
TTITLE1=Freddy Fender - Before the Next Teardrop Falls
TTITLE2=Tennesee Ernie Ford - Sixteen Tons
TTITLE3=Johnny Cash - I Walk The Line
TTITLE4=Frankie Laine - Rawhide
TTITLE5=Conway Twitty - Mona Lisa
TTITLE6=Sonny James - Young Love
TTITLE7=The Everly Brothers - Let it Be Me
TTITLE8=Elvis Presley - Don't
TTITLE9=Patsy Cline - Just Out of Reach
TTITLE10=Johnny Horton - North to Alaska
TTITLE11=Hank Locklin - Please Help Me I'm Falling
TTITLE12=Bill Hayes - The Ballad of Davy Crockett
TTITLE13=Johnny Burnett - The Ballad of the One Eyed Jacks
TTITLE14=Kenny Rogers - Ruby, Don't Take Your Love to Town
TTITLE15=Johnny Cash - Ballad of a Teenage Queen
TTITLE16=Freddy Fender - Wasted Days and Wasted Nights
TTITLE17=The Kingston Trio - Tom Dooley
TTITLE18=Wanda Jackson - It's Only Make Believe
TTITLE19=Jerry Lee Lewis - Crazy Arms
TTITLE20=Marty Robbins - A White Sports Coat (And a Pink Carnation)
TTITLE21=Elvis Presley - Wear My Ring Around Your Neck
TTITLE22=Kenny Rogers - Ruben James
TTITLE23=Hank Locklin - Send Me the Pillow That You Dream On
EXTD=YEAR: 1988 ID3G: 2
EXTT0=
EXTT1=
EXTT2=
EXTT3=
EXTT4=
EXTT5=
EXTT6=
EXTT7=
EXTT8=
EXTT9=
EXTT10=
EXTT11=
EXTT12=
EXTT13=
EXTT14=
EXTT15=
EXTT16=
EXTT17=
EXTT18=
EXTT19=
EXTT20=
EXTT21=
EXTT22=
EXTT23=
PLAYORDER=
